  <svg
          width="56"
          height="56"
          viewBox="0 0 56 56"
          fill="none"
          xmlns="http://www.w3.org/2000/svg"
        >
          <rect width="56" height="56" rx="28" fill="#9CA3AF" />
          <path
            d="M17.05 30.4618L17.3 30.3175V30.0288V18.4C17.3 18.1083 17.4159 17.8285 17.6222 17.6222C17.8285 17.4159 18.1083 17.3 18.4 17.3C18.6917 17.3 18.9715 17.4159 19.1778 17.6222C19.3841 17.8285 19.5 18.1083 19.5 18.4V30.0288V30.3175L19.75 30.4618C20.1604 30.6988 20.5012 31.0396 20.7382 31.4501C20.9751 31.8605 21.0999 32.3261 21.0999 32.8C21.0999 33.2739 20.9751 33.7395 20.7382 34.1499C20.5012 34.5604 20.1604 34.9012 19.75 35.1382L19.5 35.2825V35.5712V37.6C19.5 37.8917 19.3841 38.1715 19.1778 38.3778C18.9715 38.5841 18.6917 38.7 18.4 38.7C18.1083 38.7 17.8285 38.5841 17.6222 38.3778C17.4159 38.1715 17.3 37.8917 17.3 37.6V35.5712V35.2825L17.05 35.1382C16.6396 34.9012 16.2988 34.5604 16.0618 34.1499C15.8249 33.7395 15.7001 33.2739 15.7001 32.8C15.7001 32.3261 15.8249 31.8605 16.0618 31.4501C16.2988 31.0396 16.6396 30.6988 17.05 30.4618ZM26.65 20.8618L26.9 20.7175V20.4288V18.4C26.9 18.1083 27.0159 17.8285 27.2222 17.6222C27.4285 17.4159 27.7083 17.3 28 17.3C28.2917 17.3 28.5715 17.4159 28.7778 17.6222C28.9841 17.8285 29.1 18.1083 29.1 18.4V20.4288V20.7175L29.35 20.8618C29.7604 21.0988 30.1012 21.4396 30.3382 21.8501C30.5751 22.2605 30.6999 22.7261 30.6999 23.2C30.6999 23.6739 30.5751 24.1395 30.3382 24.5499C30.1012 24.9604 29.7604 25.3012 29.35 25.5382L29.1 25.6825V25.9712V37.6C29.1 37.8917 28.9841 38.1715 28.7778 38.3778C28.5715 38.5841 28.2917 38.7 28 38.7C27.7083 38.7 27.4285 38.5841 27.2222 38.3778C27.0159 38.1715 26.9 37.8917 26.9 37.6V25.9712V25.6825L26.65 25.5382C26.2396 25.3012 25.8988 24.9604 25.6618 24.5499C25.4249 24.1395 25.3001 23.6739 25.3001 23.2C25.3001 22.7261 25.4249 22.2605 25.6618 21.8501C25.8988 21.4396 26.2396 21.0988 26.65 20.8618ZM38.7 30.0288V30.3175L38.95 30.4618C39.3604 30.6988 39.7012 31.0396 39.9382 31.4501C40.1751 31.8605 40.2999 32.3261 40.2999 32.8C40.2999 33.2739 40.1751 33.7395 39.9382 34.1499C39.7012 34.5604 39.3604 34.9012 38.95 35.1382L38.7 35.2825V35.5712V37.6C38.7 37.8917 38.5841 38.1715 38.3778 38.3778C38.1715 38.5841 37.8917 38.7 37.6 38.7C37.3083 38.7 37.0285 38.5841 36.8222 38.3778C36.6159 38.1715 36.5 37.8917 36.5 37.6V35.5712V35.2825L36.25 35.1382C35.8396 34.9012 35.4988 34.5604 35.2618 34.1499C35.0249 33.7395 34.9001 33.2739 34.9001 32.8C34.9001 32.3261 35.0249 31.8605 35.2618 31.4501C35.4988 31.0396 35.8396 30.6988 36.25 30.4618L36.5 30.3175V30.0288V18.4C36.5 18.1083 36.6159 17.8285 36.8222 17.6222C37.0285 17.4159 37.3083 17.3 37.6 17.3C37.8917 17.3 38.1715 17.4159 38.3778 17.6222C38.5841 17.8285 38.7 18.1083 38.7 18.4V30.0288Z"
            fill="white"
            stroke="white"
          />
        </svg>