   <svg
                  width="16"
                  height="17"
                  viewBox="0 0 16 17"
                  fill="none"
                  xmlns="http://www.w3.org/2000/svg"
                >
                  <path
                    fillRule="evenodd"
                    clipRule="evenodd"
                    d="M2.3999 2.89998C2.3999 2.6878 2.48419 2.48432 2.63422 2.33429C2.78425 2.18426 2.98773 2.09998 3.1999 2.09998H12.7999C13.0121 2.09998 13.2156 2.18426 13.3656 2.33429C13.5156 2.48432 13.5999 2.6878 13.5999 2.89998V5.29998C13.5999 5.51213 13.5155 5.71558 13.3655 5.86558L9.5999 9.63117V12.5C9.59986 12.7121 9.51554 12.9156 9.3655 13.0656L7.7655 14.6656C7.65362 14.7774 7.51109 14.8536 7.35593 14.8844C7.20077 14.9153 7.03994 14.8995 6.89378 14.8389C6.74762 14.7784 6.62269 14.6759 6.53478 14.5443C6.44687 14.4128 6.39994 14.2582 6.3999 14.1V9.63117L2.6343 5.86558C2.48426 5.71558 2.39995 5.51213 2.3999 5.29998V2.89998Z"
                    fill="#6B7280"
                  />
                </svg>