<svg width="13" height="13" viewBox="0 0 13 13" fill="none" xmlns="http://www.w3.org/2000/svg">
<path d="M6.49979 5.79311L6.14623 5.43956L1.85329 1.14661C1.85327 1.14659 1.85325 1.14658 1.85323 1.14656C1.75947 1.05286 1.63234 1.00022 1.49979 1.00022C1.36725 1.00022 1.24015 1.05284 1.14639 1.14651C1.14638 1.14652 1.14636 1.14654 1.14634 1.14656C1.14632 1.14658 1.1463 1.14659 1.14629 1.14661C1.05262 1.24037 1 1.36747 1 1.5C1 1.63256 1.05264 1.75969 1.14634 1.85345M6.49979 5.79311L1.14634 1.85345M6.49979 5.79311L6.85334 5.43956M6.49979 5.79311L6.85334 5.43956M1.14634 1.85345L0.792811 2.20698L1.14639 1.8535C1.14638 1.85349 1.14636 1.85347 1.14634 1.85345ZM6.85334 5.43956L11.1463 1.14656L11.1464 1.14661M6.85334 5.43956L11.1464 1.14661M11.1464 1.14661L11.1524 1.14036M11.1464 1.14661L11.1524 1.14036M11.1524 1.14036C11.1986 1.09261 11.2537 1.05451 11.3147 1.02831C11.3757 1.00211 11.4413 0.988312 11.5077 0.987736C11.5741 0.987159 11.64 0.99981 11.7014 1.02495C11.7629 1.05009 11.8187 1.08722 11.8656 1.13416C11.9126 1.18111 11.9497 1.23694 11.9748 1.29838C12 1.35983 12.0126 1.42567 12.0121 1.49206C12.0115 1.55845 11.9977 1.62406 11.9715 1.68506C11.9453 1.74606 11.9072 1.80124 11.8594 1.84736L11.8594 1.84731M11.1524 1.14036L11.8594 1.84731M11.8594 1.84731L11.8532 1.85345M11.8594 1.84731L11.8532 1.85345M11.8532 1.85345L7.56023 6.14645L7.20668 6.5M11.8532 1.85345L7.20668 6.5M7.20668 6.5L7.56023 6.85356M7.20668 6.5L7.56023 6.85356M7.56023 6.85356L11.8497 11.143C11.9391 11.237 11.9886 11.3622 11.9875 11.4921C11.9863 11.6232 11.9338 11.7486 11.8411 11.8413C11.7483 11.934 11.6229 11.9866 11.4918 11.9877C11.362 11.9888 11.2368 11.9394 11.1428 11.8499L6.85334 7.56045L6.49979 7.2069M7.56023 6.85356L6.49979 7.2069M6.49979 7.2069L6.14623 7.56045M6.49979 7.2069L6.14623 7.56045M6.14623 7.56045L1.85683 11.8499L6.14623 7.56045ZM1.14994 11.143C1.15076 11.1421 1.1516 11.1412 1.15243 11.1404L0.792787 10.793L1.14634 11.1466L1.14994 11.143Z" stroke="#6B7280"/>
</svg>
