<svg width="187" height="36" viewBox="0 0 187 36" fill="none" xmlns="http://www.w3.org/2000/svg">
<g clip-path="url(#clip0_1_842)">
<g clip-path="url(#clip1_1_842)">
<path d="M24.32 2H0V7.12H24.32V2Z" fill="#31C48D"/>
<path d="M32 2H26.88V14.8H32V2Z" fill="#31C48D"/>
<path d="M15.36 9.67999H0V14.8H15.36V9.67999Z" fill="#31C48D"/>
<path d="M24.32 7.12H17.92V21.2H24.32V7.12Z" fill="#31C48D"/>
<path d="M15.36 14.8H8.96001V26.32H15.36V14.8Z" fill="#31C48D"/>
<path d="M6.4 14.8H0V28.88H6.4V14.8Z" fill="#31C48D"/>
<path d="M0 28.88H24.32V34H0V28.88Z" fill="#31C48D"/>
<path d="M24.32 21.2H15.36V26.32H24.32V21.2Z" fill="#31C48D"/>
<path d="M32 21.2H26.88V34H32V21.2Z" fill="#31C48D"/>
<path d="M26.88 14.8L32 14.8L29.44 16.4L26.88 18V14.8Z" fill="#31C48D"/>
<path d="M26.88 18L32 21.2H26.88V18Z" fill="#31C48D"/>
<path d="M26.88 14.8H24.32V21.2H26.88V14.8Z" fill="#31C48D"/>
</g>
<path d="M45.321 27V9.54545H49.5398V23.5739H56.8011V27H45.321ZM65.0959 27.2472C63.7209 27.2472 62.5391 26.9659 61.5504 26.4034C60.5675 25.8352 59.8089 25.0455 59.2749 24.0341C58.7464 23.017 58.4822 21.8381 58.4822 20.4972C58.4822 19.1506 58.7464 17.9716 59.2749 16.9602C59.8089 15.9432 60.5675 15.1534 61.5504 14.5909C62.5391 14.0227 63.7209 13.7386 65.0959 13.7386C66.4709 13.7386 67.6499 14.0227 68.6328 14.5909C69.6214 15.1534 70.38 15.9432 70.9084 16.9602C71.4425 17.9716 71.7095 19.1506 71.7095 20.4972C71.7095 21.8381 71.4425 23.017 70.9084 24.0341C70.38 25.0455 69.6214 25.8352 68.6328 26.4034C67.6499 26.9659 66.4709 27.2472 65.0959 27.2472ZM65.1214 24.1023C65.6214 24.1023 66.0447 23.9489 66.3913 23.642C66.7379 23.3352 67.0021 22.9091 67.1839 22.3636C67.3714 21.8182 67.4652 21.1875 67.4652 20.4716C67.4652 19.7443 67.3714 19.108 67.1839 18.5625C67.0021 18.017 66.7379 17.5909 66.3913 17.2841C66.0447 16.9773 65.6214 16.8239 65.1214 16.8239C64.6044 16.8239 64.1669 16.9773 63.8089 17.2841C63.4567 17.5909 63.1868 18.017 62.9993 18.5625C62.8175 19.108 62.7266 19.7443 62.7266 20.4716C62.7266 21.1875 62.8175 21.8182 62.9993 22.3636C63.1868 22.9091 63.4567 23.3352 63.8089 23.642C64.1669 23.9489 64.6044 24.1023 65.1214 24.1023ZM73.8445 31.9091V13.9091H77.9695V16.1506H78.0973C78.2678 15.7528 78.5092 15.3693 78.8217 15C79.1399 14.6307 79.5433 14.3295 80.032 14.0966C80.5263 13.858 81.1172 13.7386 81.8047 13.7386C82.7138 13.7386 83.5632 13.9773 84.353 14.4545C85.1484 14.9318 85.7905 15.6676 86.2791 16.6619C86.7678 17.6562 87.0121 18.9233 87.0121 20.4631C87.0121 21.946 86.7763 23.1875 86.3047 24.1875C85.8388 25.1875 85.2081 25.9375 84.4126 26.4375C83.6229 26.9375 82.745 27.1875 81.7791 27.1875C81.12 27.1875 80.549 27.0795 80.0661 26.8636C79.5831 26.6477 79.1768 26.3636 78.8473 26.0114C78.5234 25.6591 78.2734 25.2812 78.0973 24.8778H78.0121V31.9091H73.8445ZM77.9268 20.4545C77.9268 21.1591 78.0206 21.7727 78.2081 22.2955C78.4013 22.8182 78.6768 23.2244 79.0348 23.5142C79.3984 23.7983 79.8331 23.9403 80.3388 23.9403C80.8501 23.9403 81.2848 23.7983 81.6428 23.5142C82.0007 23.2244 82.2706 22.8182 82.4524 22.2955C82.6399 21.7727 82.7337 21.1591 82.7337 20.4545C82.7337 19.75 82.6399 19.1392 82.4524 18.6222C82.2706 18.1051 82.0007 17.7045 81.6428 17.4205C81.2905 17.1364 80.8558 16.9943 80.3388 16.9943C79.8274 16.9943 79.3928 17.1335 79.0348 17.4119C78.6768 17.6903 78.4013 18.0881 78.2081 18.6051C78.0206 19.1222 77.9268 19.7386 77.9268 20.4545ZM95.3153 27.2472C93.946 27.2472 92.7642 26.9773 91.7699 26.4375C90.7813 25.892 90.0199 25.1165 89.4858 24.1108C88.9574 23.0994 88.6932 21.8977 88.6932 20.5057C88.6932 19.1534 88.9602 17.9716 89.4943 16.9602C90.0284 15.9432 90.7812 15.1534 91.7528 14.5909C92.7244 14.0227 93.8693 13.7386 95.1875 13.7386C96.1193 13.7386 96.9716 13.8835 97.7443 14.1733C98.517 14.4631 99.1847 14.892 99.7472 15.4602C100.31 16.0284 100.747 16.7301 101.06 17.5653C101.372 18.3949 101.528 19.3466 101.528 20.4205V21.4602H90.1506V19.0398H97.6506C97.6449 18.5966 97.5398 18.2017 97.3352 17.8551C97.1307 17.5085 96.8494 17.2386 96.4915 17.0455C96.1392 16.8466 95.733 16.7472 95.2727 16.7472C94.8068 16.7472 94.3892 16.8523 94.0199 17.0625C93.6506 17.267 93.358 17.5483 93.142 17.9062C92.9261 18.2585 92.8125 18.6591 92.8011 19.108V21.571C92.8011 22.1051 92.9063 22.5739 93.1165 22.9773C93.3267 23.375 93.625 23.6847 94.0114 23.9062C94.3977 24.1278 94.858 24.2386 95.392 24.2386C95.7614 24.2386 96.0966 24.1875 96.3977 24.0852C96.6989 23.983 96.9574 23.8324 97.1733 23.6335C97.3892 23.4347 97.5511 23.1903 97.6591 22.9006L101.486 23.0114C101.327 23.8693 100.977 24.6165 100.438 25.2528C99.9034 25.8835 99.2017 26.375 98.3324 26.7273C97.4631 27.0739 96.4574 27.2472 95.3153 27.2472ZM107.825 19.5341V27H103.657V13.9091H107.62V16.3125H107.765C108.055 15.5114 108.549 14.8835 109.248 14.429C109.947 13.9688 110.779 13.7386 111.745 13.7386C112.665 13.7386 113.464 13.946 114.14 14.3608C114.822 14.7699 115.35 15.3437 115.725 16.0824C116.106 16.8153 116.293 17.6733 116.288 18.6562V27H112.12V19.4744C112.126 18.7472 111.941 18.179 111.566 17.7699C111.197 17.3608 110.683 17.1562 110.023 17.1562C109.586 17.1562 109.2 17.2528 108.864 17.446C108.535 17.6335 108.279 17.9034 108.097 18.2557C107.921 18.608 107.83 19.0341 107.825 19.5341ZM123.036 9.54545V27H118.868V9.54545H123.036ZM125.688 27V13.9091H129.856V27H125.688ZM127.776 12.3835C127.191 12.3835 126.688 12.1903 126.268 11.804C125.847 11.4119 125.637 10.9403 125.637 10.3892C125.637 9.84375 125.847 9.37784 126.268 8.99148C126.688 8.59943 127.191 8.40341 127.776 8.40341C128.367 8.40341 128.87 8.59943 129.285 8.99148C129.705 9.37784 129.915 9.84375 129.915 10.3892C129.915 10.9403 129.705 11.4119 129.285 11.804C128.87 12.1903 128.367 12.3835 127.776 12.3835ZM136.676 19.5341V27H132.509V13.9091H136.472V16.3125H136.616C136.906 15.5114 137.401 14.8835 138.099 14.429C138.798 13.9688 139.631 13.7386 140.597 13.7386C141.517 13.7386 142.315 13.946 142.991 14.3608C143.673 14.7699 144.202 15.3437 144.577 16.0824C144.957 16.8153 145.145 17.6733 145.139 18.6562V27H140.972V19.4744C140.977 18.7472 140.793 18.179 140.418 17.7699C140.048 17.3608 139.534 17.1562 138.875 17.1562C138.438 17.1562 138.051 17.2528 137.716 17.446C137.386 17.6335 137.131 17.9034 136.949 18.2557C136.773 18.608 136.682 19.0341 136.676 19.5341ZM153.822 32.1818C152.577 32.1818 151.512 32.0085 150.626 31.6619C149.739 31.3153 149.043 30.8409 148.538 30.2386C148.032 29.6364 147.728 28.9545 147.626 28.1932L151.572 27.9716C151.646 28.2386 151.782 28.4716 151.981 28.6705C152.185 28.8693 152.45 29.0227 152.773 29.1307C153.103 29.2386 153.489 29.2926 153.933 29.2926C154.631 29.2926 155.208 29.1222 155.663 28.7812C156.123 28.446 156.353 27.858 156.353 27.017V24.7159H156.208C156.043 25.1193 155.793 25.4801 155.458 25.7983C155.123 26.1165 154.705 26.3665 154.205 26.5483C153.711 26.7301 153.143 26.821 152.501 26.821C151.546 26.821 150.671 26.5994 149.876 26.1562C149.086 25.7074 148.452 25.0142 147.975 24.0767C147.504 23.1335 147.268 21.9205 147.268 20.4375C147.268 18.9091 147.512 17.6506 148.001 16.6619C148.489 15.6676 149.129 14.9318 149.918 14.4545C150.714 13.9773 151.569 13.7386 152.484 13.7386C153.171 13.7386 153.759 13.858 154.248 14.0966C154.742 14.3295 155.148 14.6307 155.467 15C155.785 15.3693 156.026 15.7528 156.191 16.1506H156.31V13.9091H160.461V27.0511C160.461 28.1591 160.183 29.0938 159.626 29.8551C159.069 30.6165 158.29 31.1932 157.29 31.5852C156.29 31.983 155.134 32.1818 153.822 32.1818ZM153.95 23.7869C154.455 23.7869 154.887 23.6534 155.245 23.3864C155.603 23.1193 155.879 22.7358 156.072 22.2358C156.265 21.7358 156.362 21.1364 156.362 20.4375C156.362 19.7273 156.265 19.1165 156.072 18.6051C155.884 18.0881 155.609 17.6903 155.245 17.4119C154.887 17.1335 154.455 16.9943 153.95 16.9943C153.433 16.9943 152.995 17.1364 152.637 17.4205C152.279 17.7045 152.006 18.1051 151.819 18.6222C151.637 19.1335 151.546 19.7386 151.546 20.4375C151.546 21.1364 151.64 21.7358 151.827 22.2358C152.015 22.7358 152.285 23.1193 152.637 23.3864C152.995 23.6534 153.433 23.7869 153.95 23.7869Z" fill="#31C48D"/>
</g>
<defs>
<clipPath id="clip0_1_842">
<rect width="162" height="36" fill="white"/>
</clipPath>
<clipPath id="clip1_1_842">
<rect width="32" height="32" fill="white" transform="translate(0 2)"/>
</clipPath>
</defs>
</svg>
